<svg width="1024" height="1024" viewBox="0 0 1024 1024" fill="none" xmlns="http://www.w3.org/2000/svg">
<path d="M149.428 218.091V882.012C149.428 882.012 149.428 958 214.542 958C279.656 958 279.656 882.012 279.656 882.012V419.612C279.656 419.612 279.656 335.916 354.636 335.916C435.535 335.916 435.535 419.612 435.535 419.612V595.018C435.535 595.018 438.816 675.587 511.823 675.587C584.829 675.587 584.829 595.018 584.829 595.018V419.612C584.829 419.612 584.829 335.916 660.141 335.916C744.344 335.916 744.344 419.612 744.344 419.612V882.012C744.344 882.012 744.344 958 809.458 958C874.572 958 874.572 882.012 874.572 882.012V218.091" stroke="#FCB001" stroke-width="30"/>
<path d="M948 148.5C948 189.725 914.79 223 874 223C833.21 223 800 189.725 800 148.5C800 107.275 833.21 74 874 74C914.79 74 948 107.275 948 148.5Z" stroke="#FCB001" stroke-width="30"/>
<path d="M226 148.5C226 189.725 192.79 223 152 223C111.21 223 78 189.725 78 148.5C78 107.275 111.21 74 152 74C192.79 74 226 107.275 226 148.5Z" stroke="#FCB001" stroke-width="30"/>
</svg>
