<svg width="1024" height="1024" viewBox="0 0 1024 1024" fill="none" xmlns="http://www.w3.org/2000/svg">
<path d="M226.271 278.427V802.468C226.271 802.468 226.271 862.447 277.667 862.447C329.062 862.447 329.062 802.468 329.062 802.468V437.49C329.062 437.49 329.062 371.428 388.244 371.428C452.099 371.428 452.099 437.49 452.099 437.49V575.94C452.099 575.94 454.689 639.535 512.314 639.535C569.939 639.535 569.939 575.94 569.939 575.94V437.49C569.939 437.49 569.939 371.428 629.384 371.428C695.846 371.428 695.846 437.49 695.846 437.49V802.468C695.846 802.468 695.846 862.447 747.241 862.447C798.637 862.447 798.637 802.468 798.637 802.468V278.427" stroke="#020745" stroke-width="30"/>
<path d="M853.434 223.498C853.434 254.308 828.619 279.141 798.185 279.141C767.751 279.141 742.937 254.308 742.937 223.498C742.937 192.687 767.751 167.854 798.185 167.854C828.619 167.854 853.434 192.687 853.434 223.498Z" stroke="#020745" stroke-width="30"/>
<path d="M283.55 223.498C283.55 254.308 258.735 279.141 228.301 279.141C197.867 279.141 173.052 254.308 173.052 223.498C173.052 192.687 197.867 167.854 228.301 167.854C258.735 167.854 283.55 192.687 283.55 223.498Z" stroke="#020745" stroke-width="30"/>
<path d="M15 361.283C15 299.17 15.0109 253.456 17.868 217.298C20.712 181.305 26.3065 156.057 36.7874 134.663C57.6481 92.0809 92.0809 57.6481 134.663 36.7874C156.057 26.3065 181.305 20.712 217.298 17.868C253.456 15.0109 299.17 15 361.283 15H662.717C724.83 15 770.544 15.0109 806.702 17.868C842.695 20.712 867.943 26.3065 889.337 36.7874C931.919 57.6481 966.352 92.0809 987.213 134.663C997.693 156.057 1003.29 181.305 1006.13 217.298C1008.99 253.456 1009 299.17 1009 361.283V662.717C1009 724.83 1008.99 770.544 1006.13 806.702C1003.29 842.695 997.693 867.943 987.213 889.337C966.352 931.919 931.919 966.352 889.337 987.213C867.943 997.693 842.695 1003.29 806.702 1006.13C770.544 1008.99 724.83 1009 662.717 1009H361.283C299.17 1009 253.456 1008.99 217.298 1006.13C181.305 1003.29 156.057 997.693 134.663 987.213C92.0809 966.352 57.6481 931.919 36.7874 889.337C26.3065 867.943 20.712 842.695 17.868 806.702C15.0109 770.544 15 724.83 15 662.717V361.283Z" stroke="#020745" stroke-width="30"/>
</svg>
